<?xml version="1.0" encoding="utf-8"?>
<!-- Generator: Adobe Illustrator 16.0.0, SVG Export Plug-In . SVG Version: 6.00 Build 0)  -->
<!DOCTYPE svg PUBLIC "-//W3C//DTD SVG 1.1//EN" "http://www.w3.org/Graphics/SVG/1.1/DTD/svg11.dtd">
<svg version="1.1" id="Layer_1" xmlns="http://www.w3.org/2000/svg" xmlns:xlink="http://www.w3.org/1999/xlink" x="0px" y="0px"
	 width="177px" height="37px" viewBox="22.391 20.479 177 37" enable-background="new 22.391 20.479 177 37" xml:space="preserve">
<g>
	<path fill="#FFFFFF" d="M108.892,31.659c-0.191,0.635-0.464,1.194-0.816,1.672c-0.331,0.442-0.726,0.768-1.18,0.978
		c-0.457,0.211-0.929,0.315-1.415,0.315c-0.479,0-0.943-0.098-1.391-0.292c-0.449-0.195-0.85-0.521-1.204-0.978
		c-0.347-0.45-0.617-1.006-0.814-1.673c-0.199-0.667-0.3-1.503-0.3-2.512c0-0.98,0.104-1.823,0.314-2.53
		c0.21-0.708,0.483-1.274,0.824-1.702c0.382-0.462,0.779-0.784,1.19-0.965c0.412-0.179,0.873-0.271,1.38-0.271
		c0.479,0,0.94,0.099,1.387,0.293c0.444,0.195,0.844,0.517,1.196,0.965c0.338,0.442,0.61,1.008,0.813,1.695
		c0.201,0.69,0.303,1.523,0.303,2.502C109.179,30.188,109.083,31.021,108.892,31.659z M111.313,22.877
		c-1.424-1.53-3.369-2.295-5.845-2.295c-2.48,0-4.429,0.77-5.842,2.307s-2.12,3.63-2.12,6.279c0,2.625,0.707,4.71,2.12,6.255
		c1.413,1.545,3.361,2.318,5.842,2.318c2.476,0,4.421-0.763,5.845-2.289c1.419-1.527,2.128-3.622,2.128-6.284
		C113.441,26.505,112.732,24.409,111.313,22.877z"/>
	<path fill="#FFFFFF" d="M37.72,37.393h-5.008l-4.487-6.68l-0.806,1.118v5.562h-4.14V20.931h4.14v7.328l5.27-7.328h4.783L31.6,28.57
		L37.72,37.393z"/>
	<path fill="#FFFFFF" d="M48.393,31.659c-0.19,0.635-0.464,1.194-0.816,1.672c-0.331,0.442-0.727,0.768-1.183,0.978
		c-0.455,0.211-0.927,0.315-1.411,0.315c-0.479,0-0.942-0.098-1.393-0.292c-0.447-0.195-0.849-0.521-1.202-0.978
		c-0.347-0.45-0.619-1.006-0.816-1.673c-0.2-0.667-0.299-1.503-0.299-2.512c0-0.98,0.105-1.823,0.314-2.53
		c0.21-0.708,0.483-1.274,0.823-1.702c0.382-0.462,0.779-0.784,1.19-0.965c0.415-0.179,0.873-0.271,1.382-0.271
		c0.479,0,0.938,0.099,1.385,0.293c0.445,0.195,0.845,0.517,1.198,0.965c0.338,0.442,0.609,1.008,0.812,1.695
		c0.202,0.69,0.304,1.523,0.304,2.502C48.681,30.188,48.583,31.021,48.393,31.659z M50.813,22.877
		c-1.422-1.53-3.37-2.295-5.843-2.295c-2.481,0-4.431,0.77-5.841,2.307c-1.414,1.537-2.122,3.63-2.122,6.279
		c0,2.625,0.708,4.71,2.122,6.255c1.41,1.545,3.359,2.318,5.841,2.318c2.473,0,4.421-0.763,5.843-2.289
		c1.42-1.527,2.132-3.622,2.132-6.284C52.944,26.505,52.232,24.409,50.813,22.877z"/>
	<g>
		<path fill="#FFFFFF" d="M78.726,31.213l-1.995-0.464c-0.688-0.144-1.345-0.359-1.945-0.566c-1.338-0.47-2.313-1.105-2.898-1.885
			c-0.009-0.013-0.021-0.025-0.031-0.039c-0.581-0.796-0.877-1.587-0.877-2.794c0-1.089,0.299-2.022,0.908-2.827v-1.701h-4.79
			l-3.637,8.123l-3.646-8.128H55.05v16.461h3.892v-10.91l2.993,7.043h2.817l2.995-7.043v10.91h4.121h0.018v-3.716
			c0.677,0.457,1.393,0.83,2.14,1.111c1.117,0.419,2.217,0.63,3.268,0.63c0.272,0,0.629-0.029,1.058-0.086l0,0
			c0.45-0.06,0.806-0.151,1.093-0.285c0.337-0.146,0.63-0.354,0.866-0.621c0.253-0.282,0.356-0.654,0.38-1.106
			C80.726,32.661,80.48,31.705,78.726,31.213z"/>
	</g>
	<g>
		<path fill="#FFFFFF" d="M88.061,24.956c0.45-0.462,0.921-0.788,1.421-0.975c0.497-0.188,1.042-0.281,1.642-0.281
			c0.501,0,0.981,0.081,1.442,0.244c0.462,0.164,0.885,0.36,1.268,0.592c0.384,0.23,0.727,0.468,1.029,0.71
			c0.301,0.243,0.551,0.45,0.75,0.624h0.421v-3.918c-0.271-0.14-0.631-0.305-1.071-0.497c-0.442-0.191-0.853-0.342-1.229-0.452
			c-0.479-0.133-0.98-0.236-1.503-0.31c-0.523-0.074-1.113-0.111-1.77-0.111c-2.47,0-4.433,0.777-5.888,2.332
			c-0.124,0.134-0.241,0.273-0.358,0.416c-0.286,0.353-0.539,0.731-0.757,1.134c-0.549-0.37-1.164-0.695-1.844-0.969
			c-0.993-0.4-2.026-0.603-3.07-0.603c-0.406,0-0.778,0.029-1.11,0.087c-0.331,0.059-0.686,0.172-1.051,0.339
			c-0.311,0.14-0.583,0.351-0.81,0.625c-0.235,0.287-0.356,0.615-0.356,0.974c0,0.521,0.189,0.944,0.566,1.254
			c0.356,0.295,1.008,0.549,1.991,0.776l1.765,0.401c0.553,0.127,1.157,0.305,1.791,0.529c0.395,0.143,0.757,0.303,1.087,0.479
			c0.688,0.363,1.238,0.793,1.635,1.288c0.582,0.728,0.877,1.707,0.877,2.91c0,0.986-0.211,1.85-0.644,2.608
			c0.09,0.106,0.185,0.21,0.283,0.311c1.452,1.495,3.414,2.242,5.883,2.242c0.787,0,1.407-0.039,1.856-0.12
			c0.45-0.081,0.934-0.199,1.448-0.354c0.419-0.125,0.828-0.278,1.228-0.458c0.398-0.182,0.747-0.341,1.05-0.482v-3.872h-0.375
			c-0.206,0.182-0.45,0.389-0.73,0.623c-0.281,0.232-0.604,0.462-0.973,0.686c-0.339,0.219-0.757,0.417-1.251,0.594
			c-0.493,0.179-1.014,0.267-1.56,0.267c-0.521,0-1.049-0.091-1.574-0.275c-0.528-0.184-1.006-0.479-1.433-0.893
			c-0.443-0.425-0.801-0.985-1.072-1.68c-0.272-0.694-0.412-1.552-0.412-2.573c0-0.969,0.133-1.811,0.396-2.523
			C87.31,25.941,87.646,25.375,88.061,24.956z"/>
	</g>
</g>
<g enable-background="new    ">
	<path fill="#FFFFFF" d="M128.914,35.001c-0.725,0.07-1.42,0.132-2.086,0.185c-0.668,0.053-1.393,0.097-2.176,0.132
		c-0.783,0.035-1.664,0.059-2.639,0.07c-0.978,0.012-2.14,0.017-3.482,0.017v-1.087c0.889,0,1.701,0,2.438,0
		c0.737,0,1.422-0.012,2.053-0.035v-2c-0.492-0.046-0.936-0.148-1.334-0.307c-0.396-0.158-0.742-0.359-1.033-0.605
		c-0.293-0.245-0.518-0.517-0.676-0.815c-0.158-0.298-0.235-0.61-0.235-0.938v-0.666c0-0.362,0.092-0.704,0.278-1.026
		c0.188-0.321,0.451-0.605,0.789-0.851c0.34-0.245,0.74-0.441,1.203-0.588c0.461-0.146,0.973-0.219,1.533-0.219
		c0.563,0,1.074,0.073,1.535,0.219c0.463,0.146,0.863,0.343,1.201,0.588c0.34,0.245,0.604,0.532,0.789,0.859
		c0.188,0.327,0.281,0.667,0.281,1.018v0.666c0,0.316-0.072,0.62-0.22,0.912c-0.146,0.293-0.356,0.556-0.631,0.79
		c-0.274,0.233-0.604,0.436-0.981,0.604c-0.381,0.17-0.799,0.284-1.254,0.342v1.982c0.862-0.023,1.655-0.062,2.375-0.114
		c0.721-0.053,1.44-0.119,2.166-0.201L128.914,35.001z M124.162,24.284h3.91v1.088h-9.207v-1.088h4.068v-1.999h1.229V24.284z
		 M123.547,27.318c-0.396,0-0.756,0.051-1.078,0.149c-0.322,0.1-0.596,0.229-0.824,0.386c-0.229,0.158-0.406,0.343-0.535,0.553
		c-0.129,0.211-0.192,0.421-0.192,0.632v0.491c0,0.21,0.063,0.421,0.192,0.631c0.129,0.211,0.308,0.397,0.535,0.562
		c0.229,0.165,0.502,0.295,0.824,0.395c0.322,0.1,0.682,0.149,1.078,0.149c0.398,0,0.758-0.05,1.08-0.149
		c0.32-0.1,0.596-0.23,0.824-0.395c0.227-0.164,0.406-0.351,0.535-0.562c0.127-0.21,0.19-0.421,0.19-0.631v-0.491
		c0-0.211-0.063-0.421-0.19-0.632c-0.129-0.21-0.31-0.395-0.535-0.553c-0.229-0.157-0.504-0.286-0.824-0.386
		C124.305,27.369,123.945,27.318,123.547,27.318z M131.266,29.038h2.543v1.104h-2.543v8.314h-1.246V22.425h1.246V29.038z"/>
	<path fill="#FFFFFF" d="M134.967,33.002h1.613v-7.894h-1.596v-1.069h8.067v1.069h-1.633v7.823c0.328-0.023,0.656-0.047,0.981-0.07
		c0.328-0.023,0.65-0.059,0.966-0.105l0.104,1.035c-0.375,0.047-0.771,0.088-1.193,0.123c-0.42,0.035-0.848,0.064-1.278,0.088
		c-0.435,0.023-0.856,0.041-1.271,0.052c-0.416,0.013-0.806,0.018-1.166,0.018h-3.597L134.967,33.002L134.967,33.002z
		 M138.982,33.002c0.199,0,0.404,0,0.613,0c0.211,0,0.422-0.006,0.633-0.018v-7.876h-2.457v7.894H138.982z M144.684,26.723v-3.964
		h1.228v14.908h-1.228v-6.63h-2.211V29.95h2.211v-2.141h-2.211v-1.087L144.684,26.723L144.684,26.723z M148.875,38.457h-1.229
		V22.425h1.229V38.457z"/>
	<path fill="#FFFFFF" d="M159.328,30.722h-7.227v-7.577h1.192v2.789h4.842v-2.789h1.191L159.328,30.722L159.328,30.722z
		 M153.295,29.651h4.842v-2.648h-4.842V29.651z M153.82,32.721h10.051v5.858h-1.227v-4.771h-8.824V32.721L153.82,32.721z
		 M163.871,26.372h2.455v1.087h-2.455v4.315h-1.227v-9.349h1.227V26.372z"/>
	<path fill="#FFFFFF" d="M182.412,29.213v1.053h-6.754v1.824h4.561v3.719h-9.139v1.684h9.611v1.035h-10.82v-3.736h9.137v-1.667
		h-9.225V32.09h4.646v-1.824h-6.753v-1.053H182.412z M180.201,22.863v4.877h-10.314v-4.877H180.201z M171.098,26.67h7.894v-2.754
		h-7.894V26.67z"/>
	<path fill="#FFFFFF" d="M194.443,31.336c-0.539,0.069-1.129,0.128-1.771,0.175c-0.643,0.047-1.377,0.088-2.201,0.123
		c-0.824,0.035-1.758,0.062-2.799,0.079c-1.039,0.018-2.227,0.026-3.561,0.026v-1.088c0.668,0,1.283,0,1.852,0
		c0.566,0,1.107-0.006,1.623-0.018v-3.578h1.227v3.561c0.619-0.012,1.188-0.026,1.701-0.044c0.516-0.018,0.992-0.041,1.43-0.07
		c0.439-0.028,0.854-0.061,1.246-0.096c0.392-0.035,0.773-0.07,1.148-0.104L194.443,31.336z M192.988,23.267v1.579
		c0,0.795-0.043,1.559-0.123,2.289c-0.082,0.729-0.182,1.336-0.299,1.815l-1.229-0.158c0.129-0.607,0.231-1.219,0.31-1.833
		c0.074-0.613,0.112-1.236,0.112-1.868v-0.736h-6.577v-1.088H192.988z M188.129,37.177h9.104v1.087h-10.35v-4.753h1.246V37.177z
		 M196.793,27.477h2.404v1.105h-2.404v5.735h-1.227V22.425h1.227V27.477z"/>
</g>
<g opacity="0.6" enable-background="new    ">
	<path fill="#FFFFFF" d="M30.135,56.406c-0.088,0.08-0.21,0.176-0.366,0.287c-0.156,0.113-0.348,0.221-0.576,0.324
		c-0.229,0.104-0.493,0.191-0.792,0.264c-0.3,0.072-0.635,0.109-1.003,0.109c-0.608,0-1.126-0.1-1.555-0.295
		c-0.428-0.195-0.779-0.475-1.051-0.834c-0.272-0.361-0.472-0.795-0.6-1.304C24.064,54.45,24,53.889,24,53.271v-0.926
		c0-0.592,0.068-1.129,0.204-1.607c0.136-0.48,0.34-0.889,0.613-1.227c0.272-0.336,0.612-0.594,1.021-0.773
		c0.408-0.18,0.88-0.27,1.417-0.27c0.561,0,1.064,0.075,1.513,0.227c0.448,0.152,0.832,0.346,1.152,0.578l-0.288,0.408
		c-0.352-0.24-0.708-0.42-1.068-0.535s-0.797-0.174-1.309-0.174c-0.432,0-0.818,0.075-1.159,0.229
		c-0.341,0.152-0.624,0.367-0.853,0.648c-0.228,0.279-0.402,0.619-0.522,1.021c-0.12,0.401-0.18,0.845-0.18,1.332v1.2
		c0,1.146,0.244,2.012,0.732,2.601c0.488,0.588,1.205,0.884,2.149,0.884c0.288,0,0.554-0.029,0.798-0.086
		c0.244-0.056,0.468-0.128,0.672-0.216s0.384-0.185,0.54-0.288c0.156-0.104,0.286-0.199,0.391-0.287L30.135,56.406z"/>
	<path fill="#FFFFFF" d="M39.476,56.898c0.336,0,0.656-0.051,0.961-0.15c0.304-0.1,0.568-0.271,0.792-0.51
		c0.224-0.24,0.402-0.557,0.534-0.949c0.132-0.393,0.198-0.885,0.198-1.477v-5.211h0.528v5.379c0,1.121-0.272,1.97-0.817,2.545
		c-0.545,0.576-1.277,0.865-2.197,0.865s-1.653-0.289-2.197-0.865c-0.544-0.575-0.816-1.424-0.816-2.545v-5.379h0.528v5.211
		c0,0.592,0.066,1.084,0.198,1.477s0.31,0.709,0.534,0.949c0.224,0.238,0.488,0.41,0.792,0.51
		C38.819,56.85,39.14,56.898,39.476,56.898z"/>
	<path fill="#FFFFFF" d="M49.394,48.602h2.629c0.432,0,0.824,0.043,1.177,0.127c0.352,0.084,0.652,0.215,0.9,0.396
		s0.438,0.41,0.57,0.69c0.132,0.279,0.198,0.619,0.198,1.021V51.1c0,0.607-0.15,1.092-0.45,1.453
		c-0.3,0.359-0.714,0.607-1.243,0.743l1.909,3.963H54.52l-1.873-3.854c-0.208,0.025-0.428,0.037-0.661,0.037h-2.065v3.817h-0.528
		L49.394,48.602L49.394,48.602z M49.922,49.094v3.854h2.005c0.833,0,1.441-0.157,1.825-0.475c0.384-0.316,0.576-0.777,0.576-1.387
		v-0.229c0-0.601-0.188-1.045-0.564-1.332c-0.376-0.289-0.957-0.434-1.741-0.434h-2.101V49.094z"/>
	<path fill="#FFFFFF" d="M61.592,48.602h2.629c0.432,0,0.824,0.043,1.177,0.127c0.352,0.084,0.652,0.215,0.9,0.396
		s0.438,0.41,0.57,0.69c0.132,0.279,0.198,0.619,0.198,1.021V51.1c0,0.607-0.15,1.092-0.45,1.453
		c-0.3,0.359-0.714,0.607-1.243,0.743l1.909,3.963h-0.564l-1.873-3.854c-0.208,0.025-0.428,0.037-0.661,0.037h-2.065v3.817h-0.528
		L61.592,48.602L61.592,48.602z M62.121,49.094v3.854h2.005c0.833,0,1.441-0.157,1.825-0.475c0.384-0.316,0.576-0.777,0.576-1.387
		v-0.229c0-0.601-0.188-1.045-0.564-1.332c-0.376-0.289-0.957-0.434-1.741-0.434h-2.101V49.094z"/>
	<path fill="#FFFFFF" d="M78.846,48.602v0.492H74.32v3.482h4.274v0.479H74.32v3.711h4.61v0.492h-5.139v-8.656H78.846L78.846,48.602z
		"/>
	<path fill="#FFFFFF" d="M86.398,48.602l4.311,7.336c0.048,0.08,0.11,0.196,0.186,0.35c0.076,0.152,0.138,0.279,0.186,0.384v-8.067
		h0.517v8.656h-0.721l-4.31-7.337c-0.064-0.11-0.13-0.235-0.198-0.372c-0.068-0.136-0.126-0.256-0.174-0.359v8.068h-0.516v-8.656
		h0.719V48.602z"/>
	<path fill="#FFFFFF" d="M104.372,56.406c-0.088,0.08-0.21,0.176-0.366,0.287c-0.156,0.113-0.348,0.221-0.576,0.324
		c-0.229,0.104-0.493,0.191-0.792,0.264c-0.3,0.072-0.635,0.109-1.003,0.109c-0.608,0-1.126-0.1-1.555-0.295
		c-0.428-0.195-0.779-0.475-1.051-0.834c-0.272-0.361-0.472-0.795-0.6-1.304c-0.128-0.508-0.192-1.069-0.192-1.687v-0.926
		c0-0.592,0.068-1.129,0.204-1.607c0.136-0.48,0.34-0.889,0.613-1.227c0.272-0.336,0.612-0.594,1.021-0.773
		c0.408-0.18,0.88-0.27,1.417-0.27c0.561,0,1.064,0.075,1.513,0.227c0.448,0.152,0.832,0.346,1.152,0.578l-0.288,0.408
		c-0.352-0.24-0.708-0.42-1.068-0.535c-0.36-0.115-0.797-0.174-1.309-0.174c-0.432,0-0.818,0.075-1.159,0.229
		c-0.341,0.152-0.624,0.367-0.853,0.648c-0.228,0.279-0.402,0.619-0.522,1.021s-0.18,0.845-0.18,1.332v1.2
		c0,1.146,0.244,2.012,0.732,2.601c0.488,0.588,1.205,0.884,2.149,0.884c0.288,0,0.554-0.029,0.798-0.086
		c0.244-0.056,0.468-0.128,0.672-0.216s0.384-0.185,0.54-0.288c0.156-0.104,0.286-0.199,0.391-0.287L104.372,56.406z"/>
	<path fill="#FFFFFF" d="M113.521,53.668v3.591h-0.529v-3.591l-2.989-5.066h0.564l2.703,4.588l2.592-4.588h0.576L113.521,53.668z"/>
	<path fill="#FFFFFF" d="M124.436,51.255c-0.063-0.151-0.129-0.33-0.192-0.534c-0.063-0.203-0.146-0.462-0.252-0.773v7.313h-1.429
		v-8.656h2.187l2.125,5.379l2.041-5.379h2.209v8.656h-1.453v-7.313c-0.088,0.359-0.164,0.631-0.229,0.811
		c-0.064,0.18-0.123,0.348-0.18,0.498l-1.813,4.563h-1.225L124.436,51.255z"/>
	<path fill="#FFFFFF" d="M141.137,55.998c0.313,0,0.584-0.038,0.816-0.113c0.232-0.076,0.422-0.205,0.57-0.386
		c0.147-0.181,0.258-0.416,0.33-0.708c0.071-0.292,0.106-0.65,0.106-1.074v-5.115h1.537v5.092c0,0.713-0.074,1.305-0.222,1.777
		c-0.147,0.471-0.364,0.85-0.647,1.135c-0.285,0.283-0.635,0.485-1.051,0.604c-0.416,0.12-0.896,0.181-1.44,0.181
		c-0.546,0-1.025-0.061-1.441-0.181c-0.416-0.119-0.766-0.321-1.051-0.604c-0.283-0.285-0.5-0.664-0.648-1.135
		c-0.148-0.474-0.221-1.064-0.221-1.777v-5.092h1.537v5.115c0,0.424,0.035,0.782,0.106,1.074c0.072,0.292,0.183,0.527,0.33,0.708
		s0.338,0.31,0.569,0.386C140.551,55.96,140.824,55.998,141.137,55.998z"/>
	<path fill="#FFFFFF" d="M153.947,56.01c0.553,0,0.953-0.098,1.201-0.294s0.373-0.442,0.373-0.737v-0.133
		c0-0.353-0.131-0.615-0.392-0.787c-0.262-0.172-0.639-0.313-1.135-0.426c-0.361-0.08-0.724-0.164-1.088-0.253
		c-0.363-0.088-0.691-0.22-0.984-0.396c-0.291-0.178-0.528-0.416-0.713-0.715c-0.187-0.301-0.276-0.703-0.276-1.207v-0.156
		c0-0.264,0.053-0.538,0.155-0.822c0.104-0.283,0.275-0.546,0.517-0.786c0.24-0.239,0.559-0.438,0.955-0.594
		c0.396-0.156,0.887-0.233,1.471-0.233c0.48,0,0.941,0.049,1.381,0.148c0.441,0.102,0.881,0.291,1.32,0.57l-0.719,1.188
		c-0.354-0.226-0.683-0.37-0.986-0.438c-0.303-0.067-0.627-0.103-0.971-0.103c-0.273,0-0.511,0.032-0.709,0.097
		c-0.201,0.063-0.367,0.148-0.498,0.252c-0.134,0.104-0.23,0.217-0.295,0.336c-0.065,0.121-0.097,0.24-0.097,0.36v0.146
		c0,0.207,0.049,0.375,0.149,0.504c0.101,0.128,0.234,0.234,0.402,0.318s0.365,0.151,0.594,0.203
		c0.229,0.053,0.472,0.106,0.728,0.162c0.513,0.112,0.94,0.25,1.291,0.414c0.349,0.164,0.627,0.352,0.84,0.559
		c0.213,0.209,0.365,0.438,0.457,0.69c0.093,0.252,0.138,0.526,0.138,0.822v0.155c0,0.479-0.086,0.883-0.259,1.207
		c-0.172,0.324-0.405,0.584-0.7,0.779c-0.298,0.196-0.638,0.338-1.021,0.422c-0.385,0.084-0.785,0.125-1.201,0.125
		c-0.313,0-0.617-0.025-0.918-0.078c-0.301-0.052-0.582-0.121-0.846-0.209c-0.266-0.088-0.512-0.195-0.738-0.318
		c-0.229-0.124-0.428-0.254-0.596-0.391l0.744-1.226c0.266,0.226,0.604,0.421,1.021,0.589S153.428,56.01,153.947,56.01z"/>
	<path fill="#FFFFFF" d="M169.1,48.602v1.272h-4.045v2.329h3.793v1.249h-3.793v2.532h4.129v1.273h-5.654v-8.656H169.1L169.1,48.602z
		"/>
	<path fill="#FFFFFF" d="M178.898,55.998c0.313,0,0.584-0.038,0.815-0.113c0.231-0.076,0.422-0.205,0.57-0.386
		c0.147-0.181,0.258-0.416,0.329-0.708c0.072-0.292,0.107-0.65,0.107-1.074v-5.115h1.537v5.092c0,0.713-0.074,1.305-0.223,1.777
		c-0.148,0.471-0.363,0.85-0.648,1.135c-0.283,0.283-0.635,0.485-1.051,0.604c-0.416,0.12-0.896,0.181-1.439,0.181
		c-0.545,0-1.024-0.061-1.44-0.181c-0.416-0.119-0.767-0.321-1.052-0.604c-0.282-0.285-0.5-0.664-0.647-1.135
		c-0.147-0.474-0.223-1.064-0.223-1.777v-5.092h1.536v5.115c0,0.424,0.037,0.782,0.109,1.074c0.07,0.292,0.182,0.527,0.33,0.708
		c0.146,0.181,0.338,0.31,0.57,0.386C178.313,55.96,178.586,55.998,178.898,55.998z"/>
	<path fill="#FFFFFF" d="M190.785,51.255c-0.064-0.151-0.129-0.33-0.193-0.534c-0.064-0.203-0.148-0.462-0.252-0.773v7.313h-1.428
		v-8.656h2.184l2.127,5.379l2.041-5.379h2.209v8.656h-1.453v-7.313c-0.088,0.359-0.164,0.631-0.229,0.811s-0.125,0.348-0.18,0.498
		l-1.813,4.563h-1.225L190.785,51.255z"/>
</g>
</svg>
